<?xml version="1.0" encoding="UTF-8"?>
<svg id="Layer_2" data-name="Layer 2" xmlns="http://www.w3.org/2000/svg" viewBox="0 0 274.51 211.49">
  <defs>
    <style>
      .cls-1 {
        fill: #fff;
      }

      .cls-2 {
        fill: #7953da;
      }

      .cls-3 {
        fill: #7754d9;
      }
    </style>
  </defs>
  <g id="Layer_1-2" data-name="Layer 1">
    <path class="cls-1" d="M208.75,128.92v49.34c-37.58,29.45-105.41,29.45-142.99,0v-49.35l47.61,27.49c7.24,4.19,16.34,6.32,25.03,6.32,7.38,0,14.46-1.54,19.87-4.66l50.48-29.14Z"/>
    <g>
      <path class="cls-2" d="M274.51,82.04c0-6.53-4.47-12.86-12.27-17.36L161.14,6.31c-13.4-7.73-33.12-8.46-44.9-1.65L9.4,66.34c-6.06,3.5-9.4,8.59-9.4,14.33,0,6.53,4.47,12.86,12.27,17.36l42.3,24.42v58.48c0,1.65,.73,3.23,2,4.29,19.95,16.69,49.36,26.27,80.68,26.27s60.74-9.58,80.69-26.27c1.27-1.06,2-2.64,2-4.29v-58.47l26.03-15.03v31.56c-5.55,1.92-9.55,7.2-9.55,13.41v11.24c0,7.83,6.36,14.19,14.18,14.19h3.76c7.82,0,14.19-6.36,14.19-14.19v-11.24c0-6.2-4-11.49-9.55-13.41v-37.57c0-.49-.05-.97-.16-1.42l6.27-3.62c6.06-3.5,9.4-8.59,9.4-14.34Zm-65.76,96.22c-37.58,29.45-105.41,29.45-142.99,0v-49.35l47.61,27.49c7.24,4.19,16.34,6.32,25.03,6.32,7.38,0,14.46-1.54,19.87-4.66l50.48-29.14v49.34Zm54.17-92.71c-.89,.96-1.99,1.69-2.81,2.17l-40.17,23.19-5.59,3.23-5.6,3.23-55.48,32.03c-8.68,5.01-24.66,4.25-34.9-1.66l-52.61-30.37-5.6-3.24-5.59-3.22-37.3-21.54c-4.55-2.62-7.27-5.88-7.27-8.7s2.76-4.73,4.4-5.67l40.83-23.57,5.09-2.94L121.24,13.32c3.86-2.24,9.17-3.32,14.77-3.32,7,0,14.45,1.69,20.13,4.97l58.06,33.52,5.07,2.93,37.97,21.92c4.55,2.63,7.27,5.88,7.27,8.7,0,1.36-.69,2.55-1.59,3.51Z"/>
      <path class="cls-1" d="M257.24,73.34l-37.97-21.92-5.07-2.93L156.14,14.97c-5.68-3.28-13.13-4.97-20.13-4.97-5.6,0-10.91,1.08-14.77,3.32L60.32,48.49l-5.09,2.94L14.4,75c-1.64,.94-4.4,2.95-4.4,5.67s2.72,6.08,7.27,8.7l37.3,21.54,5.59,3.22,5.6,3.24,52.61,30.37c10.24,5.91,26.22,6.67,34.9,1.66l55.48-32.03,5.6-3.23,5.59-3.23,40.17-23.19c.82-.48,1.92-1.21,2.81-2.17,.9-.96,1.59-2.15,1.59-3.51,0-2.82-2.72-6.07-7.27-8.7Zm-57.41,37.07c-1.03,.68-1.67,.54-2.64-.04-6.49-3.78-13.05-7.51-19.51-11.31-1.16-.68-1.86-.78-2.92,0-.95,.69-2.26,1.1-3.84,1.14-2.31,.03-4.07-.52-5.02-1.74-.95-1.22-.4-2.35,1.04-3.35,1.29-.89,1.09-1.69-.31-2.48-4.03-2.29-8.02-4.6-12.03-6.9-3.14-1.8-4.55-1.77-7.43,.16l-19.17,10.89c-3.65,1.68-7.24,3.4-11.1,4.93-1.82,.72-2.04,1.69-1.17,2.82,2.72,3.56,5.39,7.14,8.12,10.7,1.81,2.35,1.84,2.33-1.21,4.11-.47,.28-.88,.58-1.33,.87-2.19,.87-2.66-.69-4.03-.97-3.23-2.06-6.67-4-10.18-5.9-2.13-1.26-4.24-2.53-6.41-3.76-1.46-.83-3.13-.9-4.88-.27-1.26,.45-2.52,.9-3.79,1.35-.72,.26-1.42,.4-2.29,.14-4.01-1.23-4.78-2.8-2.42-5.02,.35-.33,.71-.66,1.05-.99,.89-.88,.83-1.77-.36-2.5-2.14-1.3-4.24-2.65-6.69-3.77-2.97-2.04-6.44-3.81-9.65-5.71-3.66-2.17-3.63-1.66,.05-3.93,1.55-.96,2.89-1.03,4.88-.51,6.42,1.68,12.91,3.28,19.4,4.89,3.14,.78,4.17,.61,6.13-1.07,4.59-3.94,10.24-7.33,16.1-10.64,3.88-2.2,7.73-4.41,11.51-6.66,2.03-1.2,2.07-2.27,.19-3.38-4.22-2.49-8.43-4.97-12.79-7.37-1.12-.62-2.58-1.15-4.42-.29-3.93,1.82-7.99,.8-8.85-2.14,0-.82,.61-1.48,1.49-2.02,.22-.14,.46-.27,.71-.4,1.26-.62,1-1-.07-1.61-2.09-1.19-4.16-2.39-6.24-3.59-3.24-1.86-6.47-3.74-9.73-5.6-1.12-.64-2.24-1.27-3.36-1.91-1.35-.76-1.29-1.2,.03-1.93,3.53-1.96,3.47-1.99,7.92-.72,5.37,1.52,10.74,3.03,16.09,4.56,2.58,.73,5.15,1.47,7.72,2.22,1.3,.37,2.07,.31,3.03-.3,1.03-.67,2.14-1.29,3.25-1.92,.65-.36,1.29-.73,1.92-1.11,1.41-.85,2.74-.93,4.2-.06,.66,.4,1.33,.79,2.01,1.17,.43,.25,.87,.5,1.3,.75,1.4,.79,1.34,1.55-.07,2.33-1.08,.59-2.08,1.23-3.18,1.81-.59,.32-.68,.52-.26,.71,.13,.06,.31,.13,.54,.19,6.36,1.79,12.72,3.61,19.07,5.41,.52,.15,1.03,.29,1.55,.44,1.67,.48,2.97,.19,4.18-.44,.14-.07,.28-.14,.41-.22,3.12-1.8,6.22-3.61,9.39-5.38,.68-.38,1.36-.76,2.05-1.14,3.39-1.85,7.15-3.33,11.24-4.46,2.89-.8,5.95-1.43,9.16-1.89,3.58-.51,6.71,.35,8.09,1.89,.76,.83,1.01,1.86,.56,2.97-.36,.9-.8,1.77-1.31,2.63-1.19,1.99-2.78,3.86-4.75,5.6-1.84,1.64-4.01,3.18-6.48,4.62-3.3,1.93-6.6,3.86-9.95,5.76-1.33,.75-1.76,1.58-.94,2.55,3.5,4.17,7.03,8.32,10.83,12.8,1.51-.97,2.77-1.81,4.08-2.62,1.27-.78,2.59-.75,3.88-.01,1.17,.66,2.31,1.34,3.48,2,1.33,.76,1.29,1.48-.04,2.23-1.91,1.08-3.78,2.19-5.7,3.27-.62,.36-1.02,.65-.53,1.22,4.72,5.45,9.39,10.91,14.07,16.37v.51h.02c-1.24,.67-2.58,1.29-3.69,2.02Z"/>
    </g>
    <path class="cls-3" d="M203.52,108.39c-1.24,.67-2.58,1.29-3.69,2.02-1.03,.68-1.67,.54-2.64-.04-6.49-3.78-13.05-7.51-19.51-11.31-1.16-.68-1.86-.78-2.92,0-.95,.69-2.26,1.1-3.84,1.14-2.31,.03-4.07-.52-5.02-1.74-.95-1.22-.4-2.35,1.04-3.35,1.29-.89,1.09-1.69-.31-2.48-4.03-2.29-8.02-4.6-12.03-6.9-3.14-1.8-4.55-1.77-7.43,.16l-19.17,10.89c-3.65,1.68-7.24,3.4-11.1,4.93-1.82,.72-2.04,1.69-1.17,2.82,2.72,3.56,5.39,7.14,8.12,10.7,1.81,2.35,1.84,2.33-1.21,4.11-.47,.28-.88,.58-1.33,.87-2.19,.87-2.66-.69-4.03-.97-3.23-2.06-6.67-4-10.18-5.9-2.13-1.26-4.24-2.53-6.41-3.76-1.46-.83-3.13-.9-4.88-.27-1.26,.45-2.52,.9-3.79,1.35-.72,.26-1.42,.4-2.29,.14-4.01-1.23-4.78-2.8-2.42-5.02,.35-.33,.71-.66,1.05-.99,.89-.88,.83-1.77-.36-2.5-2.14-1.3-4.24-2.65-6.69-3.77-2.97-2.04-6.44-3.81-9.65-5.71-3.66-2.17-3.63-1.66,.05-3.93,1.55-.96,2.89-1.03,4.88-.51,6.42,1.68,12.91,3.28,19.4,4.89,3.14,.78,4.17,.61,6.13-1.07,4.59-3.94,10.24-7.33,16.1-10.64,3.88-2.2,7.73-4.41,11.51-6.66,2.03-1.2,2.07-2.27,.19-3.38-4.22-2.49-8.43-4.97-12.79-7.37-1.12-.62-2.58-1.15-4.42-.29-3.93,1.82-7.99,.8-8.85-2.14,0-.82,.61-1.48,1.49-2.02,.22-.14,.46-.27,.71-.4,1.26-.62,1-1-.07-1.61-2.09-1.19-4.16-2.39-6.24-3.59-3.24-1.86-6.47-3.74-9.73-5.6-1.12-.64-2.24-1.27-3.36-1.91-1.35-.76-1.29-1.2,.03-1.93,3.53-1.96,3.47-1.99,7.92-.72,5.37,1.52,10.74,3.03,16.09,4.56,2.58,.73,5.15,1.47,7.72,2.22,1.3,.37,2.07,.31,3.03-.3,1.03-.67,2.14-1.29,3.25-1.92,.65-.36,1.29-.73,1.92-1.11,1.41-.85,2.74-.93,4.2-.06,.66,.4,1.33,.79,2.01,1.17,.43,.25,.87,.5,1.3,.75,1.4,.79,1.34,1.55-.07,2.33-1.08,.59-2.08,1.23-3.18,1.81-.59,.32-.68,.52-.26,.71,.13,.06,.31,.13,.54,.19,6.36,1.79,12.72,3.61,19.07,5.41,.52,.15,1.03,.29,1.55,.44,1.67,.48,2.97,.19,4.18-.44,.14-.07,.28-.14,.41-.22,3.12-1.8,6.22-3.61,9.39-5.38,.68-.38,1.36-.76,2.05-1.14,3.39-1.85,7.15-3.33,11.24-4.46,2.89-.8,5.95-1.43,9.16-1.89,3.58-.51,6.71,.35,8.09,1.89,.76,.83,1.01,1.86,.56,2.97-.36,.9-.8,1.77-1.31,2.63-1.19,1.99-2.78,3.86-4.75,5.6-1.84,1.64-4.01,3.18-6.48,4.62-3.3,1.93-6.6,3.86-9.95,5.76-1.33,.75-1.76,1.58-.94,2.55,3.5,4.17,7.03,8.32,10.83,12.8,1.51-.97,2.77-1.81,4.08-2.62,1.27-.78,2.59-.75,3.88-.01,1.17,.66,2.31,1.34,3.48,2,1.33,.76,1.29,1.48-.04,2.23-1.91,1.08-3.78,2.19-5.7,3.27-.62,.36-1.02,.65-.53,1.22,4.72,5.45,9.39,10.91,14.07,16.37v.51h.02Z"/>
  </g>
</svg>